HIERARCHY
ROOT Hips
{
  OFFSET 118.66 95.8035 284.807
  CHANNELS 6 Xposition Yposition Zposition Zrotation Xrotation Yrotation
  JOINT RightUpLeg
  {
    OFFSET -8.9458 -8.66707 0.101652
    CHANNELS 3 Zrotation Xrotation Yrotation
    JOINT RightLeg
    {
      OFFSET 0 -44.4227 1.3727
      CHANNELS 3 Zrotation Xrotation Yrotation
      JOINT RightFoot
      {
        OFFSET 0.253549 -42.0924 -1.46059
        CHANNELS 3 Zrotation Xrotation Yrotation
        JOINT RightToes
        {
          OFFSET 0.04 -4.41509 8.4991
          CHANNELS 3 Zrotation Xrotation Yrotation
          End Site
          {
            OFFSET -0.08 -0.137448 9.77979
          }
        }
      }
    }
  }
  JOINT Spine
  {
    OFFSET 0 11.8905 0
    CHANNELS 3 Zrotation Xrotation Yrotation
    JOINT Spine1
    {
      OFFSET 0 25.6574 0.127663
      CHANNELS 3 Zrotation Xrotation Yrotation
      JOINT HEad
      {
        OFFSET 0 8.73416 0.011341
        CHANNELS 3 Zrotation Xrotation Yrotation
        End Site
        {
          OFFSET -0.29 12.7742 2.51395
        }
      }
      JOINT LeftShoulder1
      {
        OFFSET 8.99 -0.362252 -0.22
        CHANNELS 3 Zrotation Xrotation Yrotation
        JOINT LeftArm
        {
          OFFSET 10.2827 -0.00338 0.322123
          CHANNELS 3 Zrotation Xrotation Yrotation
          JOINT LeftForeArm
          {
            OFFSET 32.7669 0.099144 -1.42434
            CHANNELS 3 Zrotation Xrotation Yrotation
            JOINT LeftHand
            {
              OFFSET 27.5643 0.085362 1.02216
              CHANNELS 3 Zrotation Xrotation Yrotation
              End Site
              {
                OFFSET 16.7443 -0.6 1.50291
              }
            }
          }
        }
      }
      JOINT RightShoulder
      {
        OFFSET -8.99 -0.362252 -0.22
        CHANNELS 3 Zrotation Xrotation Yrotation
        JOINT RightArm
        {
          OFFSET -10.2827 -0.00338 0.322123
          CHANNELS 3 Zrotation Xrotation Yrotation
          JOINT RightForeArm
          {
            OFFSET -32.8971 0.099144 -1.42434
            CHANNELS 3 Zrotation Xrotation Yrotation
            JOINT RightHand
            {
              OFFSET -27.4921 0.085362 1.02216
              CHANNELS 3 Zrotation Xrotation Yrotation
              End Site
              {
                OFFSET -16.6312 -0.6 1.50291
              }
            }
          }
        }
      }
    }
  }
  JOINT LeftUpLeg
  {
    OFFSET 8.9458 -8.66707 0.101652
    CHANNELS 3 Zrotation Xrotation Yrotation
    JOINT LeftLeg
    {
      OFFSET 0 -44.4227 1.3727
      CHANNELS 3 Zrotation Xrotation Yrotation
      JOINT LeftFoot
      {
        OFFSET -0.253549 -42.0924 -1.46059
        CHANNELS 3 Zrotation Xrotation Yrotation
        JOINT LeftToes
        {
          OFFSET -0.04 -4.41509 8.4991
          CHANNELS 3 Zrotation Xrotation Yrotation
          End Site
          {
            OFFSET 0.08 -0.047448 9.77979
          }
        }
      }
    }
  }
}
MOTION
Frames:	8
Frame Time:	0.0166667
118.66 95.8035 284.807 0.0221414 5.38198 -174.293 6.05239 9.65199 0.299056 4.43692 22.1468 -15.2255 5.14157 -12.1746 0.139229 -1.7885 -7.37091 -0.990037 6.12599 0.142222 0.583085 -1.76004 12.2984 1.4494 -6.39837 -14.5453 -8.35192 3.97569e-016 -1.59028e-015 -1.59028e-015 -127.484 -61.0819 -56.2675 16.2123 7.74216 -2.10976 0.368473 9.90896 -0.00117927 24.7106 -0.320034 -4.53844 103.935 -41.2104 49.6184 -5.67872 6.17078 17.5147 -0.369625 9.91382 0.00119886 -1.43076 -17.8695 -5.25697 -1.24256 3.22106 14.2415 -0.788563 -3.46859 0.0552313 -8.77672 -2.37007 0.585124 
118.329 95.5168 282.536 0.254851 5.49351 -174.634 5.94824 10.9665 0.423778 4.70762 22.7321 -14.6345 5.24355 -12.1834 0.1514 -1.93169 -7.28847 -0.915387 6.14465 0.183693 0.547938 -1.60703 12.0628 1.40065 -6.42715 -14.5716 -8.18436 -3.97569e-016 0 -1.59028e-015 -127.273 -63.9248 -56.2005 16.4145 7.66715 -2.193 0.368473 9.90896 -0.00117927 24.8445 -0.398504 -4.78516 103.722 -40.2074 49.7004 -5.44142 6.33561 17.1721 -0.369625 9.91382 0.00119886 -1.10359 -18.085 -4.92623 -1.78537 4.88728 14.2148 -0.527553 -2.70267 0.053167 -9.64632 -2.46798 0.598263 
118.006 95.2396 280.232 0.406174 5.61084 -174.894 5.80076 12.2772 0.465255 4.94309 23.3323 -14.2081 5.3418 -12.0318 0.155512 -2.0485 -7.242 -0.86147 6.11049 0.231519 0.462651 -1.5702 11.8349 1.34103 -6.32931 -14.6421 -7.99121 4.96962e-016 0 -1.59028e-015 -127.228 -66.7132 -56.4728 16.6806 7.5631 -2.30266 0.368473 9.90896 -0.00117927 25.057 -0.446866 -4.9332 103.468 -39.4443 49.707 -5.17114 6.48653 16.9303 -0.369625 9.91382 0.00119886 -0.924801 -18.4144 -4.55693 -2.29187 7.06973 13.9119 -0.235108 -1.82198 0.04978 -10.4565 -2.61214 0.618309 
117.702 94.9726 277.841 0.376883 5.73824 -174.937 5.61708 13.637 0.326868 5.10422 23.8439 -14.23 5.47613 -11.4204 0.138883 -2.17637 -7.44439 -0.885092 5.91642 0.30061 0.266352 -1.77021 11.6235 1.25536 -5.91631 -14.8558 -7.75573 -3.97569e-016 7.95139e-016 -0 -127.805 -69.2983 -57.6671 17.1698 7.36371 -2.50431 0.368473 9.90896 -0.00117927 25.4967 -0.418043 -4.82305 103.011 -39.3207 49.4667 -4.74952 6.61736 16.9726 -0.369625 9.91382 0.00119886 -1.13579 -19.1892 -3.98206 -2.51301 10.9294 12.7725 0.124737 -0.37627 0.0431648 -11.1605 -3.08477 0.688534 
117.407 94.7513 275.391 0.130637 5.88651 -174.84 5.26529 14.8727 -0.0483509 5.25428 24.6332 -14.5369 5.51341 -10.6059 0.107632 -2.09616 -7.40088 -0.898604 5.67358 0.371637 -0.0589035 -2.30873 11.4339 1.14539 -5.24321 -15.0936 -7.42511 -6.95746e-016 1.59028e-015 7.95139e-016 -128.83 -71.7959 -59.5797 17.659 7.15164 -2.70663 0.368473 9.90896 -0.00117927 26.0343 -0.333151 -4.53835 102.674 -39.5607 49.0987 -4.41248 6.68861 17.1533 -0.369625 9.91382 0.00119886 -1.59201 -19.8708 -3.54479 -2.65714 15.1292 11.377 0.570283 0.742855 0.0337355 -11.6603 -3.22419 0.706814 
117.108 94.6053 272.882 -0.456307 6.06621 -174.689 4.5465 15.8184 -0.650534 5.50082 26.0919 -15.1194 5.15936 -9.91879 0.065212 -1.61994 -6.58162 -0.782099 5.48545 0.441601 -0.577437 -3.43234 11.3047 1.01359 -4.22423 -15.3478 -6.87245 -3.97569e-016 7.95139e-016 1.59028e-015 -130.35 -74.4043 -62.3479 17.9366 6.99767 -2.82231 0.368473 9.90896 -0.00117927 26.5424 -0.192529 -4.09141 102.834 -39.9318 48.6919 -4.40015 6.64333 17.3982 -0.369625 9.91382 0.00119886 -2.27679 -20.02 -3.56618 -3.19036 18.6587 9.86862 1.2139 0.606943 0.0155625 -12.2103 -1.97598 0.508927 
116.817 94.5531 270.344 -1.2215 6.28172 -174.318 3.66979 16.4981 -1.77962 5.72642 28.0231 -15.8519 4.9376 -8.83807 0.00685181 -0.698076 -5.30471 -0.690441 5.26749 0.476323 -1.21099 -4.8265 11.1451 0.842472 -3.09744 -15.3804 -6.30362 -9.93923e-017 7.95139e-016 7.95139e-016 -132.203 -76.7441 -65.6089 18.1354 6.87137 -2.90561 0.368473 9.90896 -0.00117927 27.1587 -0.0110263 -3.53673 103.155 -40.7219 48.1916 -4.5734 6.52967 17.6758 -0.369625 9.91382 0.00119886 -3.13986 -19.6736 -3.97145 -3.78342 21.5395 8.84754 1.80694 -0.223219 0.00563463 -11.6959 -0.80055 0.325088 
116.57 94.6454 267.765 -2.05107 6.60813 -173.435 2.80488 17.0546 -4.04419 5.84826 30.2112 -16.6978 5.54819 -6.72504 -0.0732076 0.876538 -3.52234 -0.70963 4.93063 0.418719 -1.94941 -6.34772 10.8536 0.597304 -1.99306 -14.7853 -5.92237 -2.20695e-032 -7.95139e-016 -1.59028e-015 -132.793 -78.5608 -67.6423 18.363 6.75304 -3.0003 0.368473 9.90896 -0.00117927 28.2138 0.218351 -2.87968 103.315 -42.3862 47.5753 -4.8783 6.37448 17.9304 -0.369625 9.91382 0.00119886 -4.07704 -18.5879 -4.99272 -4.53521 23.3699 9.56966 2.01346 -1.67683 0.026432 -8.06462 -1.19142 0.387234 
